<?xml version="1.0" encoding="UTF-8"?>
<svg id="Layer_2" data-name="Layer 2" xmlns="http://www.w3.org/2000/svg" xmlns:xlink="http://www.w3.org/1999/xlink" viewBox="0 0 691.66 683.72">
  <defs>
    <filter id="drop-shadow-1" filterUnits="userSpaceOnUse">
      <feOffset dx="7" dy="7"/>
      <feGaussianBlur result="blur" stdDeviation="5"/>
      <feFlood flood-color="#231f20" flood-opacity=".75"/>
      <feComposite in2="blur" operator="in"/>
      <feComposite in="SourceGraphic"/>
    </filter>
  </defs>
  <g id="Layer_1-2" data-name="Layer 1">
    <g>
      <path d="M509.92,344.69c21.7,17.23,35.78,38.79,35.08,67.97-1.24,51.8,8.28,60.79,60.72,60.27,10.37-.1,20.85-.6,31.09.59,30.46,3.54,52.69,26.04,53.73,55.75,1.13,32.14,1.26,64.35.45,96.49-.82,32.86-23.94,56.01-57.18,57.05-32.82,1.02-65.72.99-98.55.04-36.18-1.05-59.35-22.83-57.55-57.84,3.94-76.77-14.64-91.39-83.62-84.31-22.75,2.33-36.18-13.09-46.67-30.76-11.53-21.56-5.68-44.81-5.57-67.17.11-21.68-4.23-36.66-27.75-44.68-24.67-8.41-32.21-31.27-38.01-53.98,1.95-45.19,23.18-67.82,67.72-72.38,30.87,2.75,54.24,16.12,65.7,45.55,5.08,13.05,14.81,17.56,28.28,17.49,15.54-.08,31.1-.43,46.62.34,9.45.47,17.01,2.68,25.48,9.58Z" style="fill: #f5b51b; stroke-width: 0px;"/>
      <path d="M280.48,341.39c10.19,27.37,21.02,53.61,56.73,57.53,10.92,1.2,10.24,11.79,10.23,20.33-.03,30.24,0,60.47,0,90.7-20.97,28.66-50.33,33.94-84.25,32.15-36.6-1.93-49.68,12.46-49.68,48.4,0,10.14.44,20.29.35,30.43-.36,39.92-21.29,61.48-61.64,62.3-31.93.65-63.89.66-95.82,0-32.52-.68-54.75-22.44-55.57-54.74-.84-32.95-.78-65.94-.12-98.89.65-32.29,24.29-55.06,57.44-56.25,14.66-.52,29.36.15,44.02-.19,29.45-.68,41.82-12.76,43.25-42.04.45-9.28.89-18.62.37-27.88-1.16-20.96,6.08-38.09,22.86-51.21,4.82-3.76,9.6-7.37,8.85-14.34,34.66-7.66,69.03-7.56,102.98,3.7Z" style="fill: #42beac; stroke-width: 0px;"/>
      <path d="M509.92,344.69c-27.21-5.38-54.79-1.69-82.17-3.23-8.85-.5-18.7-.09-20.82-10.51-6.9-33.86-32.29-46.87-62.38-55.15-14.34-33.77-12.07-67.89-2.19-102.16,24.85-27.6,56.64-33.22,92.64-31.57,24.88,1.14,40.12-16.27,42.03-42.3,1.11-15.14.06-30.43.53-45.64,1.01-32.48,20.39-52.69,52.85-53.48,34.52-.85,69.09-.84,103.61-.05,33.45.76,55.36,21.08,56.7,53.88,1.37,33.76,1.15,67.65-.03,101.43-1.06,30.26-23.52,51.66-54.83,53.56-16.33.99-32.79-.12-49.19.02-25.05.21-39.39,14-40.63,38.8-.21,4.22-.65,8.52-.11,12.67,4.54,34.78-6.19,63.17-36,83.74Z" style="fill: #40bdab; stroke-width: 0px;"/>
      <path d="M342.36,173.63c.73,34.06,1.47,68.11,2.2,102.17-38.23,6.07-59.13,28.35-64.07,65.59-34.37-.29-68.79.93-102.98-3.7-19.81-8.58-29.76-23.98-31.01-44.66-.92-15.18-.47-30.44-1.05-45.65-.92-24.3-13.72-37.39-38.29-38.27-16.38-.59-32.84.84-49.22.19-34.48-1.38-56.58-22.71-57.37-56.19C-.21,120.12-.22,87.1.75,54.14,1.69,21.91,23.93,1.16,57.29.62,90.11.09,122.95.04,155.76.7c35.33.71,57.35,23.19,57.89,57.97.18,11.84-.36,23.68-.29,35.52.22,35.77,13.83,49.81,50.33,48.22,31.7-1.39,60.82.5,78.66,31.22Z" style="fill: #056264; stroke-width: 0px;"/>
      <circle cx="344.56" cy="340.01" r="70.31" style="fill: #f5b51b; filter: url(#drop-shadow-1); stroke-width: 0px;"/>
    </g>
  </g>
</svg>